<svg width="80" height="14" viewBox="0 0 80 14" fill="none" xmlns="http://www.w3.org/2000/svg">
<path d="M7.79079 0.242388V13.7635H4.21396V3.69226H0V0.242388H7.79079ZM8.908 3.69523H12.4848V0.245349H8.908V3.69523ZM23.3072 13.7635V10.3166H17.2114V8.72939H21.8758V5.27949H17.2114V3.69226H23.3072V0.242388H13.6346V13.7635H23.3072ZM34.2332 13.7635V10.3166H28.5791V0.242388H25.0022V13.7635H34.2332ZM41.2417 3.68042C42.6256 3.68042 43.5798 4.50661 43.9354 5.46902L47.7405 5.472C47.3372 2.45149 44.62 0.0232544 41.1883 0.0232544C37.1314 0.0232544 34.3073 2.94306 34.3073 7C34.3073 11.0569 37.2263 13.9767 41.1883 13.9767C44.537 13.9767 47.2219 11.8476 47.7847 8.53986L43.9206 8.53688C43.5768 9.59702 42.516 10.3196 41.2387 10.3196C39.3451 10.3196 38.059 8.95149 38.059 7C38.062 5.04851 39.3007 3.68042 41.2417 3.68042ZM48.813 0.242388V13.7635H58.4856V10.3166H52.3898V8.72939H57.0544V5.27949H52.3898V3.69226H58.4856V0.242388H48.813ZM69.4061 13.7635V10.3166H63.7544V0.242388H60.1777V13.7635H69.4061ZM74.3488 0.242388H70.7721V13.7635H80V10.3166H74.3488V0.242388Z" fill="#FF5C39"/>
</svg>
